<svg style="fill-opacity:1;color-rendering:auto;color-interpolation:auto;text-rendering:auto;stroke:#000;stroke-linecap:square;stroke-miterlimit:10;shape-rendering:auto;stroke-opacity:1;fill:#000;stroke-dasharray:none;font-weight:400;stroke-width:1;font-family:'Dialog';font-style:normal;stroke-linejoin:miter;font-size:12px;stroke-dashoffset:0;image-rendering:auto" width="1066" height="800" xmlns="http://www.w3.org/2000/svg"><g style="font-size:13.75px;font-family:SansSerif;color-interpolation:linearRGB;fill:#262626;stroke:#262626;color-rendering:optimizeQuality;image-rendering:optimizeQuality;text-rendering:geometricPrecision"><path style="stroke:none" d="M3.299 7.035c-.02.006-.04.011-.059.018l-.027.01a.685.685 0 0 1 .09.021l-.004-.049z" transform="matrix(.94023 0 0 2.65015 263.13 1396.726)"/></g><g style="font-size:13.75px;font-family:SansSerif;color-interpolation:linearRGB;fill:#262626;stroke:#262626;color-rendering:optimizeQuality;image-rendering:optimizeQuality;text-rendering:geometricPrecision"><path style="stroke:none" d="M4.12 2.795c-.252 0-.489.024-.714.068.632.048 1.265.084 1.897.133a3.335 3.335 0 0 0-1.184-.201z" transform="matrix(.94023 0 0 2.65015 1039.758 1396.726)"/></g><g style="color-interpolation:linearRGB;fill:#262626;stroke:#262626;stroke-width:.6875;stroke-linejoin:round;color-rendering:optimizeQuality;image-rendering:optimizeQuality;text-rendering:geometricPrecision"><path style="fill:none" d="M965 349.778h-8.26" transform="matrix(.94023 0 0 2.65015 132.439 -504.759)"/></g><g style="color-interpolation:linearRGB;fill:#0072bd;stroke:#0072bd;stroke-width:2.75;stroke-linecap:butt;stroke-linejoin:round;color-rendering:optimizeQuality;image-rendering:optimizeQuality;text-rendering:geometricPrecision"><path d="m375.236 350.563.826-4.315.826-4.264.826-4.202.826-4.13.826-4.05.826-3.958.826-3.86.826-3.75.826-3.635.826-3.511.826-3.38.826-3.24.826-3.095.826-2.943.826-2.786.826-2.622.826-2.456.826-2.283.826-2.107.826-1.927.826-1.744.826-1.56.826-1.372.826-1.183.826-.994.826-.803.826-.613.826-.423.826-.233.826-.045.826.14.826.326.826.506.826.685.826.86.826 1.03.826 1.197.826 1.36.826 1.515.826 1.668.826 1.815.826 1.954.826 2.088.826 2.215.826 2.336.826 2.45.826 2.556.826 2.655.826 2.746.826 2.83.826 2.905.826 2.973.826 3.033.826 3.084.826 3.128.826 3.163.826 3.19.826 3.208.826 3.22.826 3.22.826 3.217.826 3.202.826 3.181.826 3.152.826 3.116.826 3.071.826 3.02.826 2.962.826 2.897.826 2.826.826 2.747.826 2.664.826 2.574.826 2.479.826 2.378.826 2.273.826 2.163.826 2.05.826 1.93.826 1.809.826 1.683.826 1.556.826 1.425.826 1.292.826 1.157.826 1.021.826.884.826.745.826.606.826.468.826.329.826.19.826.053.826-.082.826-.217.826-.35.826-.48.826-.608.826-.733.826-.856.826-.974.826-1.089.826-1.2.826-1.307.826-1.41.826-1.51.826-1.601.826-1.691.826-1.774.826-1.853.826-1.926.826-1.993.826-2.055.826-2.11.826-2.162.826-2.206.826-2.244.826-2.276.826-2.303.826-2.324.826-2.338.826-2.347.826-2.35.826-2.345.826-2.338.826-2.322.826-2.302.826-2.276.826-2.245.826-2.208.826-2.167.826-2.12.826-2.069.826-2.012.826-1.952.826-1.887.826-1.818.826-1.746.826-1.669.826-1.59.826-1.506.826-1.42.826-1.333.826-1.242.826-1.148.826-1.054.826-.956.826-.86.826-.758.826-.66.826-.558.826-.457.826-.356.826-.255.826-.154.826-.054.826.046.826.144.826.24.826.337.826.43.826.521.826.61.826.698.826.782.826.863.826.942.826 1.018.826 1.09.826 1.158.826 1.224.826 1.285.826 1.343.826 1.396.826 1.447.826 1.492.826 1.533.826 1.571.826 1.604.826 1.633.826 1.657.826 1.677.826 1.692.826 1.704.826 1.71.826 1.714.826 1.712.826 1.705.826 1.696.826 1.681.826 1.663.826 1.64.826 1.615.826 1.585.826 1.551.826 1.515.826 1.473.826 1.43.826 1.384.826 1.333.826 1.281.826 1.226.826 1.168.826 1.108.826 1.045.826.982.826.915.826.848.826.778.826.708.826.637.826.565.826.491.826.419.826.344.826.27.826.197.826.123.826.05.826-.022.826-.095.826-.165.826-.235.826-.303.826-.37.826-.436.826-.5.826-.56.826-.622.826-.678.826-.734.826-.787.826-.838.826-.885.826-.93.826-.974.826-1.013.826-1.05.826-1.083.826-1.114.826-1.142.826-1.166.826-1.188.826-1.206.826-1.22.826-1.233.826-1.242.826-1.247.826-1.25.826-1.248.826-1.244.826-1.238.826-1.228.826-1.215.826-1.199.826-1.18.826-1.16.826-1.134.826-1.109.826-1.08.826-1.047.826-1.014.826-.978.826-.94.826-.9.826-.858.826-.814.826-.77.826-.722.826-.675.826-.625.826-.576.826-.524.826-.472.826-.42.826-.366.826-.313.826-.26.826-.204.826-.152.826-.098.826-.044.826.01.826.06.826.113.826.164.826.214.826.263.826.31.826.358.826.402.826.447.826.489.826.529.826.568.826.606.826.64.826.674.826.705.826.735.826.761.826.787.826.81.826.829.826.848.826.864.826.878.826.888.826.898.826.905.826.909.826.91.826.911.826.909.826.903.826.897.826.887.826.877.826.862.826.848.826.83.826.812.826.79.826.768.826.743.826.717.826.69.826.66.826.631.826.599.826.566.826.532.826.497.826.462.826.425.826.388.826.35.826.311.826.273.826.234.826.195.826.155.826.117.826.077.826.038h.826l.826-.04.826-.076.826-.114.826-.151.826-.186.826-.222.826-.255.826-.29.826-.32.826-.352.826-.382.826-.41.826-.438.826-.463.826-.488.826-.511.826-.533.826-.552.826-.571.826-.588.826-.603.826-.617.826-.628.826-.639.826-.647.826-.654.826-.659.826-.662.826-.664.826-.665.826-.662.826-.66.826-.654.826-.649.826-.64.826-.63.826-.62.826-.608.826-.594.826-.579.826-.562.826-.545.826-.526.826-.506.826-.485.826-.463.826-.44.826-.416.826-.392.826-.366.826-.34.826-.315.826-.287.826-.259.826-.232.826-.203.826-.175.826-.146.826-.118.826-.089.826-.06.826-.032.826-.004.826.024.826.052.826.08.826.105.826.132.826.158.826.183.826.207.826.23.826.254.826.275.826.296.826.316.826.336.826.353.826.37.826.386.826.401.826.415.826.426.826.439.826.448.826.457.826.464.826.472.826.476.826.48.826.483.826.484.826.484.826.484.826.481.826.478.826.474.826.468.826.46.826.454.826.445.826.434.826.424.826.412.826.399.826.386.826.37.826.357.826.34.826.323.826.307.826.288.826.27.826.251.826.232.826.212.826.192.826.172.826.151.826.131.826.11.826.089.826.068.826.047.826.026.826.006.826-.015.826-.034.826-.055.826-.075.826-.093.826-.112.826-.13.826-.15.826-.165.826-.182.826-.199.826-.213.826-.229.826-.242.826-.256.826-.268.826-.28.826-.29.826-.302.826-.31.826-.318.826-.326.826-.332.826-.338.826-.343.826-.347.826-.35.826-.352.826-.353.826-.353.826-.353.826-.351.826-.35.826-.345.826-.342.826-.337.826-.331.826-.325.826-.319.826-.31.826-.301.826-.293.826-.283.826-.272.826-.261.826-.25.826-.238.826-.225.826-.212.826-.2.826-.184.826-.171.826-.157.826-.143.826-.127.826-.113.826-.097.826-.083.826-.067.826-.051.826-.037.826-.022.826-.007.826.01.826.023.826.038.826.052.826.066.826.08.826.093.826.106.826.12.826.13.826.143.826.155.826.165.826.175.826.185.826.194.826.203.826.211.826.218.826.226.826.23.826.238.826.241.826.246.826.25.826.252.826.255.826.257.826.257.826.258.826.257.826.256.826.255.826.253.826.25.826.246.826.242.826.238.826.233.826.227.826.221.826.214.826.208.826.2.826.191.826.183.826.175.826.166.826.156.826.146.826.137.826.126.826.116.826.106.826.094.826.084.826.073.826.061.826.051.826.04.826.028.826.017.826.006.826-.005.826-.015.826-.026.826-.037.826-.047.826-.056.826-.067.826-.076.826-.086.826-.094.826-.103.826-.111.826-.12.826-.126.826-.134.826-.14.826-.148.826-.153.826-.158.826-.164.826-.168.826-.172.826-.176.826-.179.826-.181.826-.184.826-.186.826-.187.826-.187.826-.188.826-.188.826-.187.826-.186.826-.184.826-.183.826-.18.826-.177.826-.174.826-.17.826-.167.826-.161.826-.157.826-.152.826-.147.826-.14.826-.135.826-.129.826-.121.826-.115.826-.108.826-.1.826-.094.826-.086.826-.078.826-.07.826-.062.826-.054.826-.047.826-.038.826-.03.826-.022.826-.013.826-.006.826.002.826.01.826.017.826.026.826.033.826.04.826.048.826.054.826.062.826.067.826.075.826.08.826.086.826.092.826.097.826.101.826.107.826.11.826.116.826.119.826.122.826.125.826.128.826.13.826.132.826.134.826.135.826.136.826.137.826.137.826.137.826.136.826.136.826.135.826.133.826.132.826.13.826.127.826.124.826.122.826.118.826.115.826.112.826.107.826.103.826.1.826.094.826.09.826.084.826.08.826.073.826.07.826.062" style="fill:none;fill-rule:evenodd" transform="matrix(.94023 0 0 2.65015 132.439 -504.759)"/></g><g style="font-style:normal;font-weight:400;font-size:12px;font-family:Dialog;color-interpolation:auto;fill:#000;fill-opacity:1;stroke:#000;stroke-width:1;stroke-linecap:square;stroke-linejoin:miter;stroke-miterlimit:10;stroke-dasharray:none;stroke-dashoffset:0;stroke-opacity:1;color-rendering:auto;image-rendering:auto;shape-rendering:auto;text-rendering:auto"><g style="font-size:13.75px;font-family:SansSerif;color-interpolation:linearRGB;fill:#262626;stroke:#262626;color-rendering:optimizeQuality;image-rendering:optimizeQuality;text-rendering:geometricPrecision"><path style="stroke:none" d="M3.299 7.035c-.02.006-.04.011-.059.018l-.027.01a.685.685 0 0 1 .09.021l-.004-.049z" transform="matrix(-.94023 0 0 -2.65015 802.746 -612.418)"/></g><g style="font-size:13.75px;font-family:SansSerif;color-interpolation:linearRGB;fill:#262626;stroke:#262626;color-rendering:optimizeQuality;image-rendering:optimizeQuality;text-rendering:geometricPrecision"><path style="stroke:none" d="M4.12 2.795c-.252 0-.489.024-.714.068.632.048 1.265.084 1.897.133a3.335 3.335 0 0 0-1.184-.201z" transform="matrix(-.94023 0 0 -2.65015 26.119 -612.418)"/></g><g style="color-interpolation:linearRGB;fill:#262626;stroke:#262626;stroke-width:.6875;stroke-linejoin:round;color-rendering:optimizeQuality;image-rendering:optimizeQuality;text-rendering:geometricPrecision"><path style="fill:none" d="M965 349.778h-8.26" transform="matrix(-.94023 0 0 -2.65015 933.438 1289.067)"/></g><g style="color-interpolation:linearRGB;fill:#0072bd;stroke:#0072bd;stroke-width:2.75;stroke-linecap:butt;stroke-linejoin:round;color-rendering:optimizeQuality;image-rendering:optimizeQuality;text-rendering:geometricPrecision"><path d="m376.888 341.984.826-4.202.826-4.13.826-4.05.826-3.958.826-3.86.826-3.75.826-3.635.826-3.511.826-3.38.826-3.24.826-3.095.826-2.943.826-2.786.826-2.623.826-2.455.826-2.283.826-2.107.826-1.927.826-1.744.826-1.56.826-1.372.826-1.183.826-.994.826-.803.826-.613.826-.423.826-.233.826-.045.826.14.826.326.826.506.826.685.826.86.826 1.03.826 1.197.826 1.36.826 1.515.826 1.668.826 1.815.826 1.954.826 2.088.826 2.215.826 2.336.826 2.45.826 2.556.826 2.655.826 2.746.826 2.83.826 2.905.826 2.973.826 3.033.826 3.084.826 3.128.826 3.163.826 3.19.826 3.208.826 3.22.826 3.22.826 3.217.826 3.202.826 3.181.826 3.152.826 3.116.826 3.071.826 3.02.826 2.962.826 2.897.826 2.826.826 2.747.826 2.664.826 2.574.826 2.479.826 2.378.826 2.273.826 2.163.826 2.05.826 1.93.826 1.809.826 1.683.826 1.556.826 1.425.826 1.292.826 1.157.826 1.021.826.884.826.745.826.606.826.468.826.329.826.19.826.053.826-.082.826-.217.826-.35.826-.48.826-.608.826-.733.826-.856.826-.974.826-1.089.826-1.2.826-1.307.826-1.41.826-1.51.826-1.601.826-1.691.826-1.774.826-1.853.826-1.926.826-1.993.826-2.055.826-2.11.826-2.162.826-2.206.826-2.244.826-2.276.826-2.303.826-2.324.826-2.338.826-2.347.826-2.35.826-2.345.826-2.338.826-2.322.826-2.302.826-2.276.826-2.245.826-2.208.826-2.167.826-2.12.826-2.069.826-2.012.826-1.952.826-1.887.826-1.818.826-1.746.826-1.669.826-1.59.826-1.506.826-1.42.826-1.333.826-1.242.826-1.148.826-1.054.826-.956.826-.86.826-.758.826-.66.826-.558.826-.457.826-.356.826-.255.826-.154.826-.054.826.046.826.144.826.24.826.337.826.43.826.521.826.61.826.698.826.782.826.863.826.942.826 1.018.826 1.09.826 1.158.826 1.224.826 1.285.826 1.343.826 1.396.826 1.447.826 1.492.826 1.533.826 1.571.826 1.604.826 1.633.826 1.657.826 1.677.826 1.692.826 1.704.826 1.71.826 1.714.826 1.712.826 1.705.826 1.696.826 1.681.826 1.663.826 1.64.826 1.615.826 1.585.826 1.551.826 1.515.826 1.473.826 1.43.826 1.384.826 1.333.826 1.281.826 1.226.826 1.168.826 1.108.826 1.045.826.982.826.915.826.848.826.778.826.708.826.637.826.565.826.491.826.419.826.344.826.27.826.197.826.123.826.05.826-.022.826-.095.826-.165.826-.235.826-.303.826-.37.826-.436.826-.5.826-.56.826-.622.826-.678.826-.734.826-.787.826-.838.826-.885.826-.93.826-.974.826-1.013.826-1.05.826-1.083.826-1.114.826-1.142.826-1.166.826-1.188.826-1.206.826-1.22.826-1.233.826-1.242.826-1.247.826-1.25.826-1.248.826-1.244.826-1.238.826-1.228.826-1.215.826-1.199.826-1.18.826-1.16.826-1.134.826-1.109.826-1.08.826-1.047.826-1.014.826-.978.826-.94.826-.9.826-.858.826-.814.826-.77.826-.722.826-.675.826-.625.826-.576.826-.524.826-.472.826-.42.826-.366.826-.313.826-.26.826-.204.826-.152.826-.098.826-.044.826.01.826.06.826.113.826.164.826.214.826.263.826.31.826.358.826.402.826.447.826.489.826.529.826.568.826.606.826.64.826.674.826.705.826.735.826.761.826.787.826.81.826.829.826.848.826.864.826.878.826.888.826.898.826.905.826.909.826.91.826.911.826.909.826.903.826.897.826.887.826.877.826.862.826.848.826.83.826.812.826.79.826.768.826.743.826.717.826.69.826.66.826.631.826.599.826.566.826.532.826.497.826.462.826.425.826.388.826.35.826.311.826.273.826.234.826.195.826.155.826.117.826.077.826.038h.826l.826-.04.826-.076.826-.114.826-.151.826-.186.826-.222.826-.255.826-.29.826-.32.826-.352.826-.382.826-.41.826-.438.826-.463.826-.488.826-.511.826-.533.826-.552.826-.571.826-.588.826-.603.826-.617.826-.628.826-.639.826-.647.826-.654.826-.659.826-.662.826-.664.826-.665.826-.662.826-.66.826-.654.826-.649.826-.64.826-.63.826-.62.826-.608.826-.594.826-.579.826-.562.826-.545.826-.526.826-.506.826-.485.826-.463.826-.44.826-.416.826-.392.826-.366.826-.34.826-.315.826-.287.826-.259.826-.232.826-.203.826-.175.826-.146.826-.118.826-.089.826-.06.826-.032.826-.004.826.024.826.052.826.08.826.105.826.132.826.158.826.183.826.207.826.23.826.254.826.275.826.296.826.316.826.336.826.353.826.37.826.386.826.401.826.415.826.426.826.439.826.448.826.457.826.464.826.472.826.476.826.48.826.483.826.484.826.484.826.484.826.481.826.478.826.474.826.468.826.46.826.454.826.445.826.434.826.424.826.412.826.399.826.386.826.37.826.357.826.34.826.323.826.307.826.288.826.27.826.251.826.232.826.212.826.192.826.172.826.151.826.131.826.11.826.089.826.068.826.047.826.026.826.006.826-.015.826-.034.826-.055.826-.075.826-.093.826-.112.826-.13.826-.15.826-.165.826-.182.826-.199.826-.213.826-.229.826-.242.826-.256.826-.268.826-.28.826-.29.826-.302.826-.31.826-.318.826-.326.826-.332.826-.338.826-.343.826-.347.826-.35.826-.352.826-.353.826-.353.826-.353.826-.351.826-.35.826-.345.826-.342.826-.337.826-.331.826-.325.826-.319.826-.31.826-.301.826-.293.826-.283.826-.272.826-.261.826-.25.826-.238.826-.225.826-.212.826-.2.826-.184.826-.171.826-.157.826-.143.826-.127.826-.113.826-.097.826-.083.826-.067.826-.051.826-.037.826-.022.826-.007.826.01.826.023.826.038.826.052.826.066.826.08.826.093.826.106.826.12.826.13.826.143.826.155.826.165.826.175.826.185.826.194.826.203.826.211.826.218.826.226.826.23.826.238.826.241.826.246.826.25.826.252.826.255.826.257.826.257.826.258.826.257.826.256.826.255.826.253.826.25.826.246.826.242.826.238.826.233.826.227.826.221.826.214.826.208.826.2.826.191.826.183.826.175.826.166.826.156.826.146.826.137.826.126.826.116.826.106.826.094.826.084.826.073.826.061.826.051.826.04.826.028.826.017.826.006.826-.005.826-.015.826-.026.826-.037.826-.047.826-.056.826-.067.826-.076.826-.086.826-.094.826-.103.826-.111.826-.12.826-.126.826-.134.826-.14.826-.148.826-.153.826-.158.826-.164.826-.168.826-.172.826-.176.826-.179.826-.181.826-.184.826-.186.826-.187.826-.187.826-.188.826-.188.826-.187.826-.186.826-.184.826-.183.826-.18.826-.177.826-.174.826-.17.826-.167.826-.161.826-.157.826-.152.826-.147.826-.14.826-.135.826-.129.826-.121.826-.115.826-.108.826-.1.826-.094.826-.086.826-.078.826-.07.826-.062.826-.054.826-.047.826-.038.826-.03.826-.022.826-.013.826-.006.826.002.826.01.826.017.826.026.826.033.826.04.826.048.826.054.826.062.826.067.826.075.826.08.826.086.826.092.826.097.826.101.826.107.826.11.826.116.826.119.826.122.826.125.826.128.826.13.826.132.826.134.826.135.826.136.826.137.826.137.826.137.826.136.826.136.826.135.826.133.826.132.826.13.826.127.826.124.826.122.826.118.826.115.826.112.826.107.826.103.826.1.826.094.826.09.826.084.826.08.826.073.826.07.826.062" style="fill:none;fill-rule:evenodd" transform="matrix(-.94023 0 0 -2.65015 933.438 1289.067)"/></g></g></svg>